<mxfile host="app.diagrams.net" modified="2024-04-28T16:37:20.180Z" agent="Mozilla/5.0 (Windows NT 10.0; Win64; x64) AppleWebKit/537.36 (KHTML, like Gecko) Chrome/124.0.0.0 Safari/537.36" version="24.3.0" etag="J2ek9JrAKm9XORYbZ1w5" type="github">
  <diagram name="Page-1" id="DQ0NL3z1l1yqtSFjFEHF">
    <mxGraphModel>
      <root>
        <mxCell id="0" />
        <mxCell id="1" parent="0" />
      </root>
    </mxGraphModel>
  </diagram>
</mxfile>
